<svg xmlns="http://www.w3.org/2000/svg" viewBox="0 0 64 64" role="img" aria-label="Boring Click Game icon">
  <defs>
    <linearGradient id="sky" x1="12" y1="5" x2="52" y2="59" gradientUnits="userSpaceOnUse">
      <stop offset="0" stop-color="#f6c98d"/>
      <stop offset="0.54" stop-color="#f7efe2"/>
      <stop offset="1" stop-color="#9cc776"/>
    </linearGradient>
    <linearGradient id="leafA" x1="24" y1="24" x2="46" y2="38" gradientUnits="userSpaceOnUse">
      <stop offset="0" stop-color="#9cd66d"/>
      <stop offset="1" stop-color="#2f8f5b"/>
    </linearGradient>
    <linearGradient id="leafB" x1="20" y1="30" x2="37" y2="22" gradientUnits="userSpaceOnUse">
      <stop offset="0" stop-color="#2f8f5b"/>
      <stop offset="1" stop-color="#b7e77b"/>
    </linearGradient>
  </defs>
  <rect width="64" height="64" rx="14" fill="url(#sky)"/>
  <circle cx="47" cy="16" r="7" fill="#fff4b8"/>
  <circle cx="32" cy="36" r="18" fill="#fffaf2" opacity="0.52"/>
  <path d="M31 46c-1-7 0-13 4-19" fill="none" stroke="#5b3b22" stroke-width="5" stroke-linecap="round"/>
  <path d="M34 29c6-8 15-8 20-2-4 7-13 9-20 2Z" fill="url(#leafA)"/>
  <path d="M32 32c-8-7-16-5-21 2 5 6 14 7 21-2Z" fill="url(#leafB)"/>
  <path d="M11 50c9 4 31 4 42 0" fill="none" stroke="#334634" stroke-width="5" stroke-linecap="round" opacity="0.72"/>
  <circle cx="21" cy="18" r="3" fill="#1d2119"/>
  <circle cx="21" cy="18" r="9" fill="none" stroke="#1d2119" stroke-width="3" opacity="0.2"/>
  <path d="M18 8v6M18 22v6M8 18h6M22 18h6" fill="none" stroke="#1d2119" stroke-width="3" stroke-linecap="round"/>
</svg>
